<svg xmlns="http://www.w3.org/2000/svg" viewBox="0 0 240 240" fill="none">
  <g stroke="rgba(255,255,255,0.35)" stroke-width="2.2">
    <path d="M120 30c0 30-24 54-54 54 30 0 54 24 54 54 0-30 24-54 54-54-30 0-54-24-54-54Z" />
    <path d="M60 120c0 16.6-13.4 30-30 30 16.6 0 30 13.4 30 30 0-16.6 13.4-30 30-30-16.6 0-30-13.4-30-30Z" />
    <path d="M180 120c0 16.6-13.4 30-30 30 16.6 0 30 13.4 30 30 0-16.6 13.4-30 30-30-16.6 0-30-13.4-30-30Z" />
    <circle cx="120" cy="120" r="12" />
    <circle cx="120" cy="120" r="84" stroke-dasharray="4 8" />
  </g>
</svg>
